<svg id="Layer_1" data-name="Layer 1" xmlns="http://www.w3.org/2000/svg" viewBox="0 0 672.09 5"><defs><style>.cls-1{fill:#f4f6f5;}.cls-2{fill:#fff;}.cls-3{fill:#ededed;}</style></defs><title>book_bg</title><g id="Layer_2" data-name="Layer 2"><g id="Layer_1-2" data-name="Layer 1-2"><rect class="cls-1" y="-110" width="672.09" height="427.91" rx="10" ry="10"/></g><g id="Layer_2_copy" data-name="Layer 2 copy"><path class="cls-2" d="M336,312.1c-13.51-7.76-76.08-41.2-149.14-41.2-91.17,0-145.14,15.42-163.14,21.76V-124.67c12-4.78,63.86-22.33,163.19-22.33,94.69,0,145.41,40.46,145.91,40.87l3.2,2.59,3.18-2.59c.5-.4,51-40.86,145.7-40.86,99.61,0,150.87,17.53,162.87,22.32V292.67c-18-6.35-71.69-21.76-162.86-21.76C411.85,270.91,349.56,304.34,336,312.1Z"/><path class="cls-3" d="M485.07-142c59,0,100.28,6.27,124.61,11.54a250.35,250.35,0,0,1,33.09,9.24v407c-23-7.26-75.36-19.87-157.86-19.87-43.08,0-82.57,11.78-108.19,21.67A335,335,0,0,0,336,306.38a335.74,335.74,0,0,0-40.73-18.8c-46.4-17.91-84.6-21.67-108.38-21.67-82.5,0-135.13,12.61-158.13,19.87v-407C44.77-127,94.87-142,186.91-142c48.42,0,84.68,10.8,106.53,19.86,23.69,9.83,36.13,19.79,36.23,19.87L336-97.06l6.35-5.21c.48-.4,49.48-39.73,142.69-39.73m-.16-10C387-152,336-110,336-110s-51.27-42-149.13-42c-117.26,0-168.1,24-168.1,24V299.91s55.53-24,168.14-24c80.42,0,149.08,42,149.08,42s68.47-42,148.89-42c112.6,0,167.89,24,167.89,24V-128s-50.61-24-167.86-24Z"/></g></g></svg>