<svg xmlns="http://www.w3.org/2000/svg" viewBox="0 0 308.48 364.39"><defs><style>.cls-1{stroke:#000;}.cls-1,.cls-4,.cls-6{stroke-miterlimit:10;}.cls-1,.cls-4{stroke-width:40px;}.cls-1,.cls-2{opacity:0.3;}.cls-3{fill:#fff;}.cls-4,.cls-5,.cls-6{fill:#f33;}.cls-4{stroke:#fff;}.cls-6{stroke:#f33;stroke-width:7px;}.cls-7{opacity:0.3;}</style></defs><title>LOGO_BD</title><g id="Layer_2" data-name="Layer 2"><g id="Layer_6" data-name="Layer 6"><path class="cls-1" d="M193.16,263.46c-27.74,10.87-59.85,9.76-86.88-4.23-38.23-19.79-61.53-63-55.75-105.9a105.9,105.9,0,0,1,97.65-91.44c42.77-2.05,84.39,21.89,101.75,61.63a106,106,0,0,1-24.5,119.67,99.3,99.3,0,0,1-13.37,10.51l22.8,20.24c43.24-32.49,62.61-88.51,49.65-141.14C269.22,70.71,209.4,29.13,146.41,32.15A136.28,136.28,0,0,0,25.69,127.68C9.21,180.59,29.45,241.52,74.24,274.1,116,304.5,172.12,309,217.43,285Z"/></g><g id="Layer_8" data-name="Layer 8"><g class="cls-2"><path d="M258.82,354.39c-7,0-14.11-2.55-20.67-7.39-5.32-3.92-12.72-14.14-17.58-21.34-.67.06-1.35.1-2.06.1-7.8,0-14.45-4.1-18.73-11.56-3.09-5.4-6.54-15.28-8.74-22.13-3.41-1.06-7.46-3.58-10.8-9.28-2.25-3.84-4-10-6.71-19.63-1.23-4.42-3.07-11.08-4-12.88a47.15,47.15,0,0,0-2.85-3.77c-1.83-2.25-5-6.21-5.27-11a139.9,139.9,0,0,0-13-10l-13.33-8.34,13.17-8.55a11.6,11.6,0,0,1,6.31-1.85c4.46,0,7.85,2.36,10.58,4.26.41.29.82.57,1.23.84,3.79,2.48,7.79,5.17,11.89,8,17.39,11.91,42.61,30.19,63.93,49.66C274.41,298.95,287.06,321,282,338.77,279.38,348,269.85,354.39,258.82,354.39Z"/><path d="M154.55,216.78c1.69,0,4.13,2,6.33,3.47,2.77,1.81,6.8,4.49,11.72,7.85,25.62,17.53,108.68,76.61,99.77,107.93-1.21,4.25-6.41,8.36-13.55,8.36-4.35,0-9.41-1.52-14.74-5.44-6.32-4.65-19.14-24.88-19.14-24.88a13.87,13.87,0,0,1-6.43,1.69c-3.23,0-7.08-1.36-10.05-6.54-4.31-7.51-10.05-27.19-10.05-27.19a5.32,5.32,0,0,1-2.75.75c-1.86,0-4.4-1-6.79-5C185.42,271.85,181,249.55,178,245c-3.47-5.36-7.7-8.48-6.31-10.8,0,0,29.7,27.4,54,55.53,12.26,14.18,31.66,36.79,31.66,36.79s-15.56-23.11-33-42.49c-47.13-52.44-70.76-67-70.76-67a1.59,1.59,0,0,1,.88-.24m0-20a21.58,21.58,0,0,0-11.74,3.45l-27.08,17.5L143.12,234c.48.31,3.52,2.35,9.1,6.89a24.26,24.26,0,0,0,2.12,5.36,41.21,41.21,0,0,0,4.59,6.53c.64.79,1.26,1.55,1.78,2.26.8,2.19,2.21,7.28,3.18,10.76,2.89,10.43,4.85,17.12,7.72,22a31.23,31.23,0,0,0,11.3,11.52c2.3,6.8,5.29,14.72,8.21,19.8,5.46,9.52,14.14,15.37,24.14,16.42,5.3,7.52,11.64,15.54,17,19.46,8.29,6.11,17.49,9.34,26.6,9.34,15.48,0,29-9.41,32.79-22.89,6.22-21.87-7.35-47.09-42.69-79.37-21.75-19.87-47.37-38.45-65-50.53-5.19-3.56-9.43-6.36-12.06-8.08-.33-.21-.66-.45-1-.68-3.25-2.26-8.7-6.05-16.29-6.05Z"/></g></g><g id="Layer_9" data-name="Layer 9"><circle class="cls-3" cx="155.77" cy="154.17" r="101.62"/></g><g id="Layer_6_copy" data-name="Layer 6 copy"><path class="cls-4" d="M193.16,251.46c-27.74,10.87-59.85,9.76-86.88-4.23-38.23-19.79-61.53-63-55.75-105.9a105.9,105.9,0,0,1,97.65-91.44c42.77-2.05,84.39,21.89,101.75,61.63a106,106,0,0,1-24.5,119.67,99.3,99.3,0,0,1-13.37,10.51l22.8,20.24c43.24-32.49,62.61-88.51,49.65-141.14C269.22,58.71,209.4,17.13,146.41,20.15A136.28,136.28,0,0,0,25.69,115.68C9.21,168.59,29.45,229.52,74.24,262.1,116,292.5,172.12,297,217.43,273Z"/></g><g id="Layer_8_copy" data-name="Layer 8 copy"><path d="M258.82,342.39c-7,0-14.11-2.55-20.67-7.39-5.32-3.92-12.72-14.14-17.58-21.34-.67.06-1.35.1-2.06.1-7.8,0-14.45-4.1-18.73-11.56-3.09-5.4-6.54-15.28-8.74-22.13-3.41-1.06-7.46-3.58-10.8-9.28-2.25-3.84-4-10-6.71-19.63-1.23-4.42-3.07-11.08-4-12.88a47.15,47.15,0,0,0-2.85-3.77c-1.83-2.25-5-6.21-5.27-11a139.9,139.9,0,0,0-13-10l-13.33-8.34,13.17-8.55a11.6,11.6,0,0,1,6.31-1.85c4.46,0,7.85,2.36,10.58,4.26.41.29.82.57,1.23.84,3.79,2.48,7.79,5.17,11.89,8,17.39,11.91,42.61,30.19,63.93,49.66C274.41,286.95,287.06,309,282,326.77,279.38,336,269.85,342.39,258.82,342.39Z"/><path class="cls-3" d="M154.55,204.78c1.69,0,4.13,2,6.33,3.47,2.77,1.81,6.8,4.49,11.72,7.85,25.62,17.53,108.68,76.61,99.77,107.93-1.21,4.25-6.41,8.36-13.55,8.36-4.35,0-9.41-1.52-14.74-5.44-6.32-4.65-19.14-24.88-19.14-24.88a13.87,13.87,0,0,1-6.43,1.69c-3.23,0-7.08-1.36-10.05-6.54-4.31-7.51-10.05-27.19-10.05-27.19a5.32,5.32,0,0,1-2.75.75c-1.86,0-4.4-1-6.79-5C185.42,259.85,181,237.55,178,233c-3.47-5.36-7.7-8.48-6.31-10.8,0,0,29.7,27.4,54,55.53,12.26,14.18,31.66,36.79,31.66,36.79s-15.56-23.11-33-42.49c-47.13-52.44-70.76-67-70.76-67a1.59,1.59,0,0,1,.88-.24m0-20a21.58,21.58,0,0,0-11.74,3.45l-27.08,17.5L143.12,222c.47.31,3.52,2.35,9.11,6.89a24.26,24.26,0,0,0,2.12,5.36,41.21,41.21,0,0,0,4.59,6.53c.64.79,1.26,1.55,1.78,2.26.8,2.19,2.21,7.28,3.18,10.76,2.89,10.43,4.85,17.12,7.72,22a31.23,31.23,0,0,0,11.3,11.52c2.3,6.8,5.29,14.72,8.21,19.8,5.46,9.52,14.14,15.37,24.14,16.42,5.3,7.52,11.64,15.54,17,19.46,8.29,6.11,17.49,9.34,26.6,9.34,15.48,0,29-9.41,32.79-22.89,6.22-21.87-7.35-47.09-42.69-79.37-21.75-19.87-47.37-38.45-65-50.53-5.19-3.56-9.43-6.36-12.06-8.08-.33-.21-.66-.45-1-.68-3.25-2.26-8.7-6.05-16.29-6.05Z"/></g><g id="Layer_7" data-name="Layer 7"><path class="cls-5" d="M267.09,333.34a35.61,35.61,0,0,1-19-5.92c-5.59-3.51-13.73-13.16-19.1-20a21.47,21.47,0,0,1-3.61.31c-7.13,0-13.51-3.62-18-10.21-3.49-5.16-7.65-14.77-10.35-21.43-3.36-.79-7.67-3-11.45-8.45-2.53-3.67-4.76-9.66-8.14-19.08-1.55-4.32-3.88-10.82-4.91-12.56a47.13,47.13,0,0,0-3.12-3.55c-2-2.11-5.49-5.82-6.06-10.54a139.91,139.91,0,0,0-13.74-9l-13.91-7.34,12.51-9.5a11.61,11.61,0,0,1,7.06-2.34c4,0,7.32,1.94,10,3.5.43.26.87.51,1.29.75,2.71,1.5,7.07,3.95,12.44,7.07,18.23,10.59,44.71,27,67.41,44.82,34.31,27,48.55,48,44.81,66.13C289.12,326,279,333.33,267.09,333.34Z"/><path class="cls-3" d="M155.27,203.7c1.68,0,4.17,1.76,6.4,3,2.89,1.6,7.11,4,12.26,7,26.84,15.6,114,68.39,107.45,100.28-1,4.61-6.42,9.38-14.31,9.38a25.83,25.83,0,0,1-13.7-4.39c-6.64-4.17-20.92-23.4-20.92-23.4a13.71,13.71,0,0,1-7.11,2.19c-3.05,0-6.62-1.28-9.68-5.81-4.85-7.17-12-26.38-12-26.38a5.36,5.36,0,0,1-3.09,1c-1.82,0-4.25-.92-6.74-4.54-3.87-5.62-9.93-27.54-13.21-31.87-3.86-5.09-8.3-7.89-7.09-10.3,0,0,31.63,25.14,58,51.39,13.27,13.24,34.28,34.35,34.28,34.35s-17.22-21.91-36-39.95C178.88,216.78,154.24,204,154.24,204a1.66,1.66,0,0,1,1-.32m0-20a21.53,21.53,0,0,0-13.09,4.36l-25.73,19.45L145,221.75c.5.28,3.69,2.09,9.59,6.2a24.26,24.26,0,0,0,2.51,5.19,41.21,41.21,0,0,0,5.05,6.18c.7.74,1.37,1.45,1.94,2.13,1,2.12,2.74,7.1,4,10.5,3.65,10.19,6.1,16.71,9.32,21.38A30.63,30.63,0,0,0,189.48,284c2.79,6.61,6.35,14.27,9.63,19.12,6.17,9.13,15.13,14.29,25.29,14.59,5.84,7.11,12.76,14.65,18.35,18.16,7.88,4.95,16.06,7.46,24.33,7.46,16.61,0,30.87-10.66,33.9-25.35,4.59-22.27-10.8-46.42-48.42-76-23.16-18.21-50.07-34.85-68.57-45.6-5.44-3.16-9.87-5.65-12.62-7.17l-1-.61c-3.1-1.83-8.28-4.9-15.05-4.9Z"/></g><g id="Layer_5" data-name="Layer 5"><path class="cls-6" d="M193.16,251.46c-27.74,10.87-59.85,9.76-86.88-4.23-38.23-19.79-61.53-63-55.75-105.9a105.9,105.9,0,0,1,97.65-91.44c42.77-2.05,84.39,21.89,101.75,61.63a106,106,0,0,1-24.5,119.67,99.3,99.3,0,0,1-13.37,10.51l22.8,20.24c43.24-32.49,62.61-88.51,49.65-141.14C269.22,58.71,209.4,17.13,146.41,20.15A136.28,136.28,0,0,0,25.69,115.68C9.21,168.59,29.45,229.52,74.24,262.1,116,292.5,172.12,297,217.43,273Z"/><g class="cls-7"><path d="M155.77,204.28c1.62-1,4.59,1.5,7.22,3.22s6.8,4.49,11.72,7.85c25.62,17.53,108.68,76.61,99.77,107.93-1.94,6.84-14.2,13.29-28.3,2.92-6.32-4.65-19.14-24.88-19.14-24.88s-10.21,6.08-16.48-4.85c-4.31-7.51-10.05-27.19-10.05-27.19s-5,3.4-9.54-4.29c-3.45-5.89-7.87-28.19-10.83-32.76-3.47-5.36-7.7-8.48-6.31-10.8,0,0,29.7,27.4,54,55.53,12.26,14.18,31.66,36.79,31.66,36.79s-15.56-23.11-33-42.49C179.4,218.82,155.77,204.28,155.77,204.28Z"/></g><path class="cls-5" d="M154.24,204c1.54-1.16,4.69,1.16,7.43,2.68s7.11,4,12.26,7c26.84,15.6,114,68.39,107.45,100.28-1.44,7-13.19,14.3-28,5-6.64-4.17-20.92-23.4-20.92-23.4s-9.73,6.82-16.79-3.62c-4.85-7.17-12-26.38-12-26.38s-4.78,3.76-9.83-3.57c-3.87-5.62-9.93-27.54-13.21-31.87-3.86-5.09-8.3-7.89-7.09-10.3,0,0,31.64,25.14,58,51.39,13.27,13.24,34.28,34.35,34.28,34.35s-17.22-21.91-36-39.95C178.88,216.78,154.24,204,154.24,204Z"/></g></g></svg>